<svg id="BG" xmlns="http://www.w3.org/2000/svg" xmlns:xlink="http://www.w3.org/1999/xlink" viewBox="0 0 612 792"><defs><style>.cls-1,.cls-21{fill:#fff;}.cls-10,.cls-2{fill:#232121;}.cls-11,.cls-3{font-size:16px;}.cls-11,.cls-17,.cls-21,.cls-3,.cls-8{font-family:Proxima Nova;}.cls-3{white-space:pre;}.cls-4{fill:#b19700;}.cls-5{fill:#005451;}.cls-6{fill:#004e71;stroke:#231f20;}.cls-15,.cls-23,.cls-6{stroke-miterlimit:10;}.cls-7{fill:#ffdeb8;}.cls-8{font-size:9px;fill:#968e8e;}.cls-9{fill:url(#linear-gradient);}.cls-10{font-size:18px;}.cls-10,.cls-16{font-family:Gotham Light;}.cls-12{font-weight:700;}.cls-13{letter-spacing:-1px;}.cls-14,.cls-16,.cls-18{font-size:14px;}.cls-15{fill:#8b0300;stroke:#fff;}.cls-16{fill:#757575;}.cls-17{font-size:12px;}.cls-18{font-family:Gotham Black;}.cls-19{fill:#ffd945;}.cls-20{fill:#c7c5c5;}.cls-21{font-size:10px;}.cls-22{fill:#a22929;}.cls-23{fill:none;stroke:#232121;}</style><linearGradient id="linear-gradient" x1="108.69" y1="199.14" x2="108.69" y2="129.29" gradientUnits="userSpaceOnUse"><stop offset="0" stop-color="#232121"/><stop offset="1" stop-color="#fff"/></linearGradient></defs><title>resume</title><rect class="cls-1" y="199.14" width="106.2" height="557.93"/><rect class="cls-2" width="612" height="124.1"/><polygon class="cls-2" points="612 129.29 0 129.29 0 199.14 293.33 199.14 306 209.6 318.67 199.14 612 199.14 612 129.29"/><rect class="cls-2" y="757.07" width="612" height="34.93"/><image width="200" height="200" transform="translate(10.71 652.14) scale(0.42)" xlink:href="G:\Desktop\qrcode.35359320.png"/><rect class="cls-1" y="124.1" width="612" height="5.19"/><polygon class="cls-1" points="318.38 199.14 305.73 209.6 293.08 199.14 111.18 199.14 111.18 757.07 612 757.07 612 199.14 318.38 199.14"/><polygon class="cls-1" points="306 767.53 318.67 757.07 293.33 757.07 306 767.53"/><circle cx="230.47" cy="705.27" r="1.27"/><circle cx="194.35" cy="705.27" r="1.27"/><text class="cls-3" transform="translate(162.22 710.19)">832  366  3580</text><rect class="cls-4" x="123.62" y="526.61" width="215.64" height="23.15"/><rect class="cls-5" x="381.12" y="526.61" width="215.64" height="23.15"/><rect class="cls-5" x="381.12" y="558.75" width="165.71" height="23.15"/><rect class="cls-5" x="381.12" y="590.88" width="138.57" height="23.15"/><rect class="cls-4" x="123.62" y="558.75" width="186.3" height="23.15"/><rect class="cls-4" x="123.62" y="590.88" width="93.59" height="23.15"/><path class="cls-6" d="M496.67,95.77c0-.07,0-0.18,0-0.31A1.51,1.51,0,0,1,496.67,95.77Z"/><path class="cls-6" d="M496.69,95.46"/><path class="cls-1" d="M134.52,124.1L111.18,92.19V124.1h-5v-40h5.1l23,31.26V84.09h5v40h-4.8Z"/><path class="cls-1" d="M148.5,124.1v-33h22.92v4.14H153.24v9.9h17.88v4.14H153.24V120h18.18v4.14H148.5Z"/><path class="cls-1" d="M204.9,124.1l-7.5-25.86L190,124.1h-5l-9.9-33h5.22l7.38,26.58,7.74-26.58h4l7.68,26.64,7.44-26.64h5.16l-9.9,33H204.9Z"/><path class="cls-1" d="M254.34,124.1V97.47L243,124.1h-2L229.62,97.47V124.1h-4.74v-33h6.42l10.62,25.14L252.6,91.11H259v33h-4.68Z"/><path class="cls-1" d="M283.5,91.11l13.92,33H292.2l-3.06-7.2H272.28l-3.06,7.2h-5.28l14-33h5.58ZM280.74,96l-7,16.74h14Z"/><path class="cls-1" d="M326.52,124.1L307,98.43V124.1h-4.68v-33h4.92l19.32,25.2V91.11h4.68v33h-4.74Z"/><path class="cls-1" d="M355.32,124.1v-40h5v35.58h18.6v4.44H355.32Z"/><path class="cls-1" d="M385.38,124.1v-33h4.74v33h-4.74Z"/><path class="cls-1" d="M399.12,111.39V91.11h4.74v20c0,5.88,3.3,9.6,9.42,9.6s9.48-3.72,9.48-9.6v-20h4.74v20.28c0,8.16-4.8,13.44-14.22,13.44S399.12,119.48,399.12,111.39Z"/><path class="cls-7" d="M534.79,117.5l-2.69,2v-1c0-.28,0-0.56,0-0.84a88.56,88.56,0,0,0-1.89-15,13.15,13.15,0,0,1-.38-3.42c0.11-5.23-1.52-6.32-1.52-6.32,0.66-2-2.41-3.18-2.41-3.18,0.66,0,.66-1.2.66-1.2-0.44-1.76-3.62-3.18-3.62-3.18,0.55-2.63-5.26-1.54-5.26-1.54A2.12,2.12,0,0,0,519.06,82c-1,.33-5.37-1-5.37-1a3,3,0,0,1-2.32-.59,3.3,3.3,0,0,0-3.46-.7,28.82,28.82,0,0,0-5,2.49c1.86-2.3,1.2-2.63,1.2-2.63-2.19-.66-5.47,2.19-5.47,2.19V80.51c-3.18.22-9.43,4.16-9.43,4.16-0.55,0,.55-1.31.55-1.31-1.53.22-3.62,2.19-3.62,2.19a4.07,4.07,0,0,1,.76-1.42c-2.74.78-6.67,7.12-6.67,7.12-0.33-3.4,2-7.13,2-7.13L479,87.19V85.33c-1.76.28-2.42,7.26-2.59,9.44A26.35,26.35,0,0,0,475,88.84c-1.21,1-1.54,8.21-1.54,8.21-1.09.22-.82-2.43-0.82-2.43a16.56,16.56,0,0,0-.85,5.84c-1.61-.56-2.71,2.32-3.27,4.36a12.39,12.39,0,0,0-.45,3.37v10.32l-0.83,1c-0.24,17.18,3.24,27.75,4.91,31.8a10.22,10.22,0,0,0,2,3.08c7.26,7.81,9.69,11.31,10.49,12.85a9.36,9.36,0,0,0,2.11,2.66l1.08,0.94a8.25,8.25,0,0,0,3.67,1.88,44.24,44.24,0,0,0,12.13.61,11.3,11.3,0,0,0,5.75-2.12,81.58,81.58,0,0,0,14-13.06c7.18-7,9.63-24.14,10.18-28.86a6,6,0,0,1,.74-2.3C541.46,114.33,534.79,117.5,534.79,117.5Z"/><path d="M536,79.7a53.2,53.2,0,0,0-9.07-14.49,11.54,11.54,0,0,0-6-3.65c-10.63-2.52-32.72.24-32.72,0.24-10.05.85-19,11.31-23.41,17.35A13.51,13.51,0,0,0,462.23,88c2,28,5,31.42,5,31.42l0.83-1V108.19a12.39,12.39,0,0,1,.45-3.37c0.56-2,1.66-4.92,3.27-4.36a16.56,16.56,0,0,1,.85-5.84s-0.27,2.65.82,2.43c0,0,.33-7.23,1.54-8.21a26.35,26.35,0,0,1,1.35,5.93c0.17-2.18.83-9.16,2.59-9.44v1.86l3.29-3.07s-2.3,3.73-2,7.13c0,0,3.93-6.34,6.67-7.12a4.07,4.07,0,0,0-.76,1.42s2.09-2,3.62-2.19c0,0-1.1,1.31-.55,1.31,0,0,6.25-3.94,9.43-4.16v1.31S502,79,504.15,79.63c0,0,.66.33-1.2,2.63a28.82,28.82,0,0,1,5-2.49,3.3,3.3,0,0,1,3.46.7,3,3,0,0,0,2.32.59s4.38,1.31,5.37,1a2.12,2.12,0,0,1-1.43,1.75s5.81-1.09,5.26,1.54c0,0,3.18,1.42,3.62,3.18,0,0,0,1.2-.66,1.2,0,0,3.07,1.21,2.41,3.18,0,0,1.63,1.09,1.52,6.32a13.15,13.15,0,0,0,.38,3.42,88.56,88.56,0,0,1,1.89,15l0,1.88,2.69-2c0.06-.6,1.82-5.52,2.84-8.33a12,12,0,0,0,.7-4V92.24A33.36,33.36,0,0,0,536,79.7Z"/><path class="cls-1" d="M124.77,157.23V144.69H129c4.1,0,6.63,2.85,6.63,6.29s-2.53,6.25-6.63,6.25h-4.22ZM134.3,151a5,5,0,0,0-5.31-5.17h-3v10.3h3A4.94,4.94,0,0,0,134.3,151Z"/><path class="cls-1" d="M138.7,157.23V144.69h8.39v1.12H140v4.42h7v1.12h-7v4.76h7.14v1.12H138.7Z"/><path class="cls-1" d="M149.26,155.49l0.77-.89a5.49,5.49,0,0,0,4.06,1.8c2.48,0,3.4-1.23,3.4-2.51,0-3.65-7.84-1.6-7.84-6.06,0-2.05,1.94-3.42,4.33-3.42a5.92,5.92,0,0,1,4.49,1.8l-0.73.87a4.83,4.83,0,0,0-3.76-1.57c-1.71,0-3,1-3,2.3,0,3.12,7.86,1.32,7.86,6.06,0,2-1.44,3.62-4.74,3.62A6.19,6.19,0,0,1,149.26,155.49Z"/><path class="cls-1" d="M161.59,157.23V144.69h1.25v12.54h-1.25Z"/><path class="cls-1" d="M165.9,151a6.4,6.4,0,0,1,6.63-6.54,6.5,6.5,0,0,1,4.92,2.14l-0.91.73a5.48,5.48,0,0,0-4-1.76,5.44,5.44,0,0,0,0,10.87,5.56,5.56,0,0,0,3.72-1.48V152H172v-1.09h5.49v4.47a6.74,6.74,0,0,1-5,2.12A6.4,6.4,0,0,1,165.9,151Z"/><path class="cls-1" d="M190.21,157.23l-8.07-10.58v10.58h-1.25V144.69h1.28l8,10.42V144.69h1.25v12.54h-1.23Z"/><path class="cls-1" d="M212.86,157.23V144.69h5.43c2.23,0,3.67,1.23,3.67,3.21a2.91,2.91,0,0,1-2.14,2.85,3.32,3.32,0,0,1,2.42,3.08c0,2.07-1.46,3.4-3.83,3.4h-5.54Zm7.8-9.21a2.18,2.18,0,0,0-2.48-2.21h-4.06v4.42h4.06A2.21,2.21,0,0,0,220.65,148Zm0.25,5.72a2.41,2.41,0,0,0-2.64-2.39h-4.15v4.76h4.15A2.33,2.33,0,0,0,220.9,153.74Z"/><path class="cls-1" d="M225.19,157.23V144.69h8.39v1.12h-7.14v4.42h7v1.12h-7v4.76h7.14v1.12h-8.39Z"/><path class="cls-1" d="M246.12,157.23v-5.9H238v5.9h-1.25V144.69H238v5.54h8.16v-5.54h1.23v12.54h-1.23Z"/><path class="cls-1" d="M256.34,144.69l5.4,12.54h-1.41l-1.32-3h-6.82l-1.28,3h-1.44l5.4-12.54h1.46Zm-0.73,1.37-3,7h6Z"/><path class="cls-1" d="M267,157.23l-5.4-12.54H263l4.7,11.12,4.74-11.12h1.39l-5.4,12.54H267Z"/><path class="cls-1" d="M276,157.23V144.69h1.25v12.54H276Z"/><path class="cls-1" d="M280.31,151a6.36,6.36,0,1,1,6.36,6.54A6.2,6.2,0,0,1,280.31,151Zm11.42,0c0-3.12-2-5.43-5.06-5.43s-5.06,2.3-5.06,5.43,2,5.43,5.06,5.43S291.73,154,291.73,151Z"/><path class="cls-1" d="M303.75,157.23l-3.6-5.11h-2.78v5.11h-1.25V144.69h5c2.55,0,4,1.6,4,3.69a3.51,3.51,0,0,1-3.6,3.67l3.81,5.17h-1.55Zm0-8.85a2.51,2.51,0,0,0-2.8-2.58h-3.62V151H301A2.5,2.5,0,0,0,303.79,148.38Z"/><path class="cls-1" d="M313.56,144.69l5.4,12.54h-1.41l-1.32-3h-6.82l-1.28,3h-1.44l5.4-12.54h1.46Zm-0.73,1.37-3,7h6Z"/><path class="cls-1" d="M321.08,157.23V144.69h1.25v11.42h6.31v1.12h-7.57Z"/><path class="cls-1" d="M336.38,155.49l0.78-.89a5.49,5.49,0,0,0,4.06,1.8c2.49,0,3.4-1.23,3.4-2.51,0-3.65-7.84-1.6-7.84-6.06,0-2.05,1.94-3.42,4.33-3.42a5.92,5.92,0,0,1,4.49,1.8l-0.73.87a4.83,4.83,0,0,0-3.76-1.57c-1.71,0-3,1-3,2.3,0,3.12,7.86,1.32,7.86,6.06,0,2-1.44,3.62-4.74,3.62A6.2,6.2,0,0,1,336.38,155.49Z"/><path class="cls-1" d="M348.11,150.93a6.37,6.37,0,0,1,6.61-6.52,5.91,5.91,0,0,1,4.81,2.33l-1,.62a4.75,4.75,0,0,0-3.83-1.82,5.43,5.43,0,0,0,0,10.85,4.72,4.72,0,0,0,3.83-1.82l1,0.62a6,6,0,0,1-4.83,2.33A6.4,6.4,0,0,1,348.11,150.93Z"/><path class="cls-1" d="M362,157.23V144.69h1.25v12.54H362Z"/><path class="cls-1" d="M366.89,157.23V144.69h8.39v1.12h-7.13v4.42h7v1.12h-7v4.76h7.13v1.12h-8.39Z"/><path class="cls-1" d="M387.73,157.23l-8.07-10.58v10.58h-1.25V144.69h1.28l8,10.42V144.69H389v12.54h-1.23Z"/><path class="cls-1" d="M392,150.93a6.37,6.37,0,0,1,6.61-6.52,5.91,5.91,0,0,1,4.81,2.33l-1,.62a4.75,4.75,0,0,0-3.83-1.82,5.43,5.43,0,0,0,0,10.85,4.72,4.72,0,0,0,3.83-1.82l1,0.62a6,6,0,0,1-4.83,2.33A6.4,6.4,0,0,1,392,150.93Z"/><path class="cls-1" d="M405.91,157.23V144.69h8.39v1.12h-7.13v4.42h7v1.12h-7v4.76h7.13v1.12h-8.39Z"/><path class="cls-1" d="M416.47,155.49l0.78-.89a5.49,5.49,0,0,0,4.06,1.8c2.49,0,3.4-1.23,3.4-2.51,0-3.65-7.84-1.6-7.84-6.06,0-2.05,1.94-3.42,4.33-3.42a5.92,5.92,0,0,1,4.49,1.8l-0.73.87a4.83,4.83,0,0,0-3.76-1.57c-1.71,0-3,1-3,2.3,0,3.12,7.86,1.32,7.86,6.06,0,2-1.44,3.62-4.74,3.62A6.2,6.2,0,0,1,416.47,155.49Z"/><rect class="cls-1" x="201.83" y="142.57" width="1.71" height="15.96"/><text class="cls-8" transform="translate(123.62 172.13)">A<tspan x="5.92" y="0"> </tspan><tspan x="9.07" y="0">k</tspan><tspan x="13.67" y="0">een</tspan><tspan x="28.77" y="0"> </tspan><tspan x="31.92" y="0">eye</tspan><tspan x="46.47" y="0"> </tspan><tspan x="49.62" y="0">for</tspan><tspan x="60.29" y="0"> </tspan><tspan x="63.44" y="0">branding</tspan><tspan x="98.65" y="0"> </tspan><tspan x="101.8" y="0">developed</tspan><tspan x="144.08" y="0"> </tspan><tspan x="147.23" y="0">from</tspan><tspan x="165.17" y="0"> </tspan><tspan x="168.32" y="0">game</tspan><tspan x="190.59" y="0"> </tspan><tspan x="193.74" y="0">design</tspan><tspan x="220.33" y="0"> </tspan><tspan x="223.48" y="0">and</tspan><tspan x="238.38" y="0"> </tspan><tspan x="241.53" y="0">life</tspan><tspan x="253.2" y="0"> </tspan><tspan x="256.35" y="0">experiences </tspan><tspan x="0" y="10.8">combined with mar</tspan><tspan x="75.19" y="10.8">k</tspan><tspan x="79.79" y="10.8">eting skills from degrees in Economics and Psychology</tspan></text><rect class="cls-9" x="106.2" y="129.29" width="4.98" height="69.85"/><rect class="cls-2" x="106.2" y="199.14" width="4.98" height="557.93"/><text class="cls-10" transform="translate(123.62 230.51)">EDUCATION</text><text class="cls-11" transform="translate(123.62 255.76)"><tspan class="cls-12">The University of <tspan class="cls-13" x="125.28" y="0">T</tspan><tspan x="132.83" y="0">exas at </tspan><tspan x="187.79" y="0">A</tspan><tspan x="198.35" y="0">ustin</tspan></tspan><tspan class="cls-14"><tspan x="0" y="18">Bachelor of Arts in Economics</tspan><tspan x="0" y="34.8">Bachelor of Arts in Psychology</tspan></tspan></text><text class="cls-10" transform="translate(123.62 325.75)">EXPERIENCE</text><text class="cls-11" transform="translate(123.62 350.99)"><tspan class="cls-12">R<tspan x="9.58" y="0">ealized Holdings</tspan></tspan><tspan class="cls-14"><tspan x="0" y="18">Graphic Designe</tspan><tspan class="cls-13" x="101.25" y="18">r</tspan><tspan x="104.54" y="18">, Contractor</tspan></tspan></text><text class="cls-10" transform="translate(123.62 509.91)">LANGUAGES</text><text class="cls-10" transform="translate(123.62 648.03)">CONTACT</text><text class="cls-10" transform="translate(382.03 509.91)">SKILLS</text><circle class="cls-15" cx="108.5" cy="250.1" r="8.39"/><circle class="cls-15" cx="108.5" cy="346.76" r="8.39"/><circle class="cls-15" cx="108.6" cy="421.89" r="8.39"/><text class="cls-16" transform="translate(18.89 256.03)">2012 - 2015</text><text class="cls-16" transform="translate(19.43 352.07)">2016 - Pres</text><text class="cls-16" transform="translate(17.24 428.04)">2014 - 2016</text><text class="cls-17" transform="translate(150.35 385.85)">Created infographic, <tspan x="110.25" y="0">P</tspan><tspan x="117.14" y="0">ower</tspan><tspan x="143.53" y="0">P</tspan><tspan x="150.42" y="0">oint, and video presentations </tspan><tspan x="0" y="14.4">to maximize an emerging company</tspan><tspan x="183.68" y="14.4">’</tspan><tspan x="186.08" y="14.4">s mar</tspan><tspan x="214.76" y="14.4">k</tspan><tspan x="220.89" y="14.4">etability</tspan></text><text class="cls-11" transform="translate(123.62 426.35)"><tspan class="cls-12">MediaScience</tspan><tspan class="cls-14"><tspan x="0" y="18">Mar</tspan><tspan x="22.79" y="18">k</tspan><tspan x="29.83" y="18">eting </tspan><tspan x="63.78" y="18">R</tspan><tspan x="71.68" y="18">esearch Assistant</tspan></tspan></text><text class="cls-17" transform="translate(150.35 461.2)">Provided research support and ensured data collection <tspan x="0" y="14.4">and customer service e</tspan><tspan x="122.47" y="14.4">x</tspan><tspan x="127.87" y="14.4">cellence</tspan></text><text class="cls-18" transform="translate(471.2 261.03)">3.7 GPA</text><rect class="cls-19" x="438.37" y="266.11" width="109.49" height="12.71"/><rect class="cls-20" x="547.86" y="266.11" width="14.3" height="12.71"/><text class="cls-11" transform="translate(162.22 678.37)">newmanmi.liu@gmail<tspan x="146.33" y="0">.</tspan><tspan x="149.92" y="0">com</tspan></text><text class="cls-11" transform="translate(162.22 738.82)">ww<tspan x="23.49" y="0">w</tspan><tspan x="34.53" y="0">.newmanliu.me</tspan></text><polygon class="cls-2" points="153.73 667.15 153.73 682.76 122.15 682.76 122.15 667.15 137.94 674.96 153.73 667.15"/><polygon class="cls-2" points="153.73 666.68 137.94 674.49 122.15 666.68 153.73 666.68"/><rect class="cls-2" x="130.37" y="691.21" width="15.12" height="25.58"/><rect class="cls-1" x="131.64" y="692.98" width="12.6" height="21.06"/><rect class="cls-1" x="136.94" y="692.05" width="1.98" height="0.32" rx="0.16" ry="0.16"/><circle class="cls-1" cx="137.94" cy="715.44" r="0.98"/><path class="cls-2" d="M111.18,232.57H236a1,1,0,0,1,1,1v0a1,1,0,0,1-1,1H111.18a0,0,0,0,1,0,0v-2.05a0,0,0,0,1,0,0Z"/><path class="cls-2" d="M111.18,327.8H241.27a1,1,0,0,1,1,1v0a1,1,0,0,1-1,1H111.18a0,0,0,0,1,0,0V327.8A0,0,0,0,1,111.18,327.8Z"/><path class="cls-2" d="M383.09,512H612a0,0,0,0,1,0,0V514a0,0,0,0,1,0,0H383.09a1,1,0,0,1-1-1v0a1,1,0,0,1,1-1Z"/><path class="cls-2" d="M111.18,512H241.8a1,1,0,0,1,1,1v0a1,1,0,0,1-1,1H111.18a0,0,0,0,1,0,0V512a0,0,0,0,1,0,0Z"/><path class="cls-2" d="M111.18,650.08h105a1,1,0,0,1,1,1v0a1,1,0,0,1-1,1h-105a0,0,0,0,1,0,0v-2.05A0,0,0,0,1,111.18,650.08Z"/><text class="cls-21" transform="translate(129.85 541.31)">English</text><text class="cls-21" transform="translate(388.35 541.31)">Illustrator</text><text class="cls-21" transform="translate(388.35 573.44)">Photoshop</text><text class="cls-21" transform="translate(388.35 605.58)">InDesign</text><rect class="cls-22" x="381.12" y="623.02" width="208.26" height="23.15"/><rect class="cls-22" x="381.12" y="655.15" width="175.2" height="23.15"/><rect class="cls-22" x="381.12" y="687.29" width="107.82" height="23.15"/><text class="cls-21" transform="translate(388.35 637.71)">MS Office</text><text class="cls-21" transform="translate(388.35 669.85)">Java/C#</text><text class="cls-21" transform="translate(388.35 701.98)">HTML/CSS</text><text class="cls-21" transform="translate(129.85 573.44)">Mandarin Chinese</text><text class="cls-21" transform="translate(129.85 605.58)">Japanese</text><circle class="cls-23" cx="137.94" cy="736.93" r="10"/><ellipse class="cls-23" cx="137.94" cy="736.93" rx="5.58" ry="10"/><line class="cls-23" x1="127.94" y1="736.93" x2="147.93" y2="736.93"/><line class="cls-23" x1="128.81" y1="741.02" x2="147.02" y2="741.02"/><line class="cls-23" x1="128.81" y1="732.8" x2="147.02" y2="732.8"/><line class="cls-23" x1="137.94" y1="726.94" x2="137.94" y2="746.93"/></svg>